<mxfile host="app.diagrams.net" modified="2021-05-03T08:36:17.257Z" agent="5.0 (Macintosh; Intel Mac OS X 10_15_6) AppleWebKit/605.1.15 (KHTML, like Gecko) Version/14.0.3 Safari/605.1.15" etag="BRZeFRttXeCcfvgIVyDm" version="14.6.9" type="github">
  <diagram id="Ye_1s_PwDqeFsSJ71oEs" name="第 1 页">
    <mxGraphModel dx="946" dy="620" grid="1" gridSize="10" guides="1" tooltips="1" connect="1" arrows="1" fold="1" page="1" pageScale="1" pageWidth="3300" pageHeight="2339" math="0" shadow="0">
      <root>
        <mxCell id="0" />
        <mxCell id="1" parent="0" />
        <mxCell id="innrkbjN795lYIx9L5WS-31" value="" style="rounded=0;whiteSpace=wrap;html=1;fillColor=#b0e3e6;strokeColor=#0e8088;" vertex="1" parent="1">
          <mxGeometry x="880" y="470" width="90" height="110" as="geometry" />
        </mxCell>
        <mxCell id="innrkbjN795lYIx9L5WS-16" style="edgeStyle=orthogonalEdgeStyle;rounded=0;orthogonalLoop=1;jettySize=auto;html=1;exitX=1;exitY=0.25;exitDx=0;exitDy=0;entryX=0;entryY=0.25;entryDx=0;entryDy=0;" edge="1" parent="1" source="innrkbjN795lYIx9L5WS-2" target="innrkbjN795lYIx9L5WS-6">
          <mxGeometry relative="1" as="geometry" />
        </mxCell>
        <mxCell id="innrkbjN795lYIx9L5WS-51" style="rounded=0;orthogonalLoop=1;jettySize=auto;html=1;exitX=1;exitY=0;exitDx=0;exitDy=0;entryX=0;entryY=1;entryDx=0;entryDy=0;" edge="1" parent="1" source="innrkbjN795lYIx9L5WS-2" target="innrkbjN795lYIx9L5WS-47">
          <mxGeometry relative="1" as="geometry" />
        </mxCell>
        <mxCell id="innrkbjN795lYIx9L5WS-2" value="" style="rounded=0;whiteSpace=wrap;html=1;fillColor=#b0e3e6;strokeColor=#0e8088;" vertex="1" parent="1">
          <mxGeometry x="420" y="470" width="90" height="110" as="geometry" />
        </mxCell>
        <mxCell id="innrkbjN795lYIx9L5WS-4" value="req" style="rounded=0;whiteSpace=wrap;html=1;fillColor=#d5e8d4;strokeColor=#82b366;" vertex="1" parent="1">
          <mxGeometry x="435" y="510" width="60" height="30" as="geometry" />
        </mxCell>
        <mxCell id="innrkbjN795lYIx9L5WS-5" value="Client" style="text;html=1;strokeColor=none;fillColor=none;align=center;verticalAlign=middle;whiteSpace=wrap;rounded=0;" vertex="1" parent="1">
          <mxGeometry x="445" y="440" width="40" height="20" as="geometry" />
        </mxCell>
        <mxCell id="innrkbjN795lYIx9L5WS-17" style="edgeStyle=orthogonalEdgeStyle;rounded=0;orthogonalLoop=1;jettySize=auto;html=1;exitX=1;exitY=0.25;exitDx=0;exitDy=0;entryX=0;entryY=0.25;entryDx=0;entryDy=0;" edge="1" parent="1" source="innrkbjN795lYIx9L5WS-6" target="innrkbjN795lYIx9L5WS-10">
          <mxGeometry relative="1" as="geometry" />
        </mxCell>
        <mxCell id="innrkbjN795lYIx9L5WS-21" style="edgeStyle=orthogonalEdgeStyle;rounded=0;orthogonalLoop=1;jettySize=auto;html=1;exitX=0;exitY=0.75;exitDx=0;exitDy=0;entryX=1;entryY=0.75;entryDx=0;entryDy=0;" edge="1" parent="1" source="innrkbjN795lYIx9L5WS-6" target="innrkbjN795lYIx9L5WS-2">
          <mxGeometry relative="1" as="geometry" />
        </mxCell>
        <mxCell id="innrkbjN795lYIx9L5WS-6" value="" style="rounded=0;whiteSpace=wrap;html=1;fillColor=#b0e3e6;strokeColor=#0e8088;" vertex="1" parent="1">
          <mxGeometry x="580" y="470" width="90" height="110" as="geometry" />
        </mxCell>
        <mxCell id="innrkbjN795lYIx9L5WS-7" value="Proxy" style="text;html=1;strokeColor=none;fillColor=none;align=center;verticalAlign=middle;whiteSpace=wrap;rounded=0;" vertex="1" parent="1">
          <mxGeometry x="605" y="440" width="40" height="20" as="geometry" />
        </mxCell>
        <mxCell id="innrkbjN795lYIx9L5WS-8" value="JDK" style="rounded=0;whiteSpace=wrap;html=1;fillColor=#fff2cc;strokeColor=#d6b656;" vertex="1" parent="1">
          <mxGeometry x="595" y="510" width="60" height="30" as="geometry" />
        </mxCell>
        <mxCell id="innrkbjN795lYIx9L5WS-20" style="edgeStyle=orthogonalEdgeStyle;rounded=0;orthogonalLoop=1;jettySize=auto;html=1;exitX=0;exitY=0.75;exitDx=0;exitDy=0;entryX=1;entryY=0.75;entryDx=0;entryDy=0;" edge="1" parent="1" source="innrkbjN795lYIx9L5WS-10" target="innrkbjN795lYIx9L5WS-6">
          <mxGeometry relative="1" as="geometry" />
        </mxCell>
        <mxCell id="innrkbjN795lYIx9L5WS-33" style="edgeStyle=orthogonalEdgeStyle;rounded=0;orthogonalLoop=1;jettySize=auto;html=1;exitX=1.011;exitY=0.318;exitDx=0;exitDy=0;entryX=0;entryY=0.5;entryDx=0;entryDy=0;exitPerimeter=0;" edge="1" parent="1" source="innrkbjN795lYIx9L5WS-10" target="innrkbjN795lYIx9L5WS-25">
          <mxGeometry relative="1" as="geometry" />
        </mxCell>
        <mxCell id="innrkbjN795lYIx9L5WS-10" value="" style="rounded=0;whiteSpace=wrap;html=1;fillColor=#b0e3e6;strokeColor=#0e8088;" vertex="1" parent="1">
          <mxGeometry x="730" y="470" width="90" height="110" as="geometry" />
        </mxCell>
        <mxCell id="innrkbjN795lYIx9L5WS-11" value="Remote" style="text;html=1;strokeColor=none;fillColor=none;align=center;verticalAlign=middle;whiteSpace=wrap;rounded=0;" vertex="1" parent="1">
          <mxGeometry x="755" y="440" width="40" height="20" as="geometry" />
        </mxCell>
        <mxCell id="innrkbjN795lYIx9L5WS-12" value="OkHttp" style="rounded=0;whiteSpace=wrap;html=1;fillColor=#dae8fc;strokeColor=#6c8ebf;" vertex="1" parent="1">
          <mxGeometry x="745" y="510" width="60" height="30" as="geometry" />
        </mxCell>
        <mxCell id="innrkbjN795lYIx9L5WS-39" style="edgeStyle=orthogonalEdgeStyle;rounded=0;orthogonalLoop=1;jettySize=auto;html=1;exitX=0.011;exitY=0.682;exitDx=0;exitDy=0;entryX=1;entryY=0.5;entryDx=0;entryDy=0;exitPerimeter=0;" edge="1" parent="1" source="innrkbjN795lYIx9L5WS-13" target="innrkbjN795lYIx9L5WS-26">
          <mxGeometry relative="1" as="geometry" />
        </mxCell>
        <mxCell id="innrkbjN795lYIx9L5WS-13" value="" style="rounded=0;whiteSpace=wrap;html=1;fillColor=#b0e3e6;strokeColor=#0e8088;" vertex="1" parent="1">
          <mxGeometry x="1040" y="470" width="90" height="110" as="geometry" />
        </mxCell>
        <mxCell id="innrkbjN795lYIx9L5WS-14" value="Server" style="text;html=1;strokeColor=none;fillColor=none;align=center;verticalAlign=middle;whiteSpace=wrap;rounded=0;" vertex="1" parent="1">
          <mxGeometry x="1065" y="440" width="40" height="20" as="geometry" />
        </mxCell>
        <mxCell id="innrkbjN795lYIx9L5WS-15" value="Resp" style="rounded=0;whiteSpace=wrap;html=1;fillColor=#d5e8d4;strokeColor=#82b366;" vertex="1" parent="1">
          <mxGeometry x="1055" y="510" width="60" height="30" as="geometry" />
        </mxCell>
        <mxCell id="innrkbjN795lYIx9L5WS-40" style="edgeStyle=orthogonalEdgeStyle;rounded=0;orthogonalLoop=1;jettySize=auto;html=1;exitX=1;exitY=0.5;exitDx=0;exitDy=0;entryX=-0.033;entryY=0.318;entryDx=0;entryDy=0;entryPerimeter=0;" edge="1" parent="1" source="innrkbjN795lYIx9L5WS-25" target="innrkbjN795lYIx9L5WS-13">
          <mxGeometry relative="1" as="geometry" />
        </mxCell>
        <mxCell id="innrkbjN795lYIx9L5WS-25" value="序列化" style="rounded=0;whiteSpace=wrap;html=1;fillColor=#d5e8d4;strokeColor=#82b366;" vertex="1" parent="1">
          <mxGeometry x="880" y="490" width="90" height="30" as="geometry" />
        </mxCell>
        <mxCell id="innrkbjN795lYIx9L5WS-36" style="edgeStyle=orthogonalEdgeStyle;rounded=0;orthogonalLoop=1;jettySize=auto;html=1;exitX=0;exitY=0.5;exitDx=0;exitDy=0;entryX=0.989;entryY=0.682;entryDx=0;entryDy=0;entryPerimeter=0;" edge="1" parent="1" source="innrkbjN795lYIx9L5WS-26" target="innrkbjN795lYIx9L5WS-10">
          <mxGeometry relative="1" as="geometry" />
        </mxCell>
        <mxCell id="innrkbjN795lYIx9L5WS-26" value="反序列化" style="rounded=0;whiteSpace=wrap;html=1;fillColor=#d5e8d4;strokeColor=#82b366;" vertex="1" parent="1">
          <mxGeometry x="880" y="530" width="90" height="30" as="geometry" />
        </mxCell>
        <mxCell id="innrkbjN795lYIx9L5WS-41" value="Protocol" style="text;html=1;strokeColor=none;fillColor=none;align=center;verticalAlign=middle;whiteSpace=wrap;rounded=0;" vertex="1" parent="1">
          <mxGeometry x="905" y="440" width="40" height="20" as="geometry" />
        </mxCell>
        <mxCell id="innrkbjN795lYIx9L5WS-42" value="&lt;b&gt;Version1.0.0&lt;/b&gt;" style="text;html=1;strokeColor=none;fillColor=none;align=center;verticalAlign=middle;whiteSpace=wrap;rounded=0;" vertex="1" parent="1">
          <mxGeometry x="740" y="610" width="70" height="20" as="geometry" />
        </mxCell>
        <mxCell id="innrkbjN795lYIx9L5WS-52" style="edgeStyle=none;rounded=0;orthogonalLoop=1;jettySize=auto;html=1;exitX=1;exitY=1;exitDx=0;exitDy=0;entryX=0;entryY=0;entryDx=0;entryDy=0;" edge="1" parent="1" source="innrkbjN795lYIx9L5WS-47" target="innrkbjN795lYIx9L5WS-13">
          <mxGeometry relative="1" as="geometry" />
        </mxCell>
        <mxCell id="innrkbjN795lYIx9L5WS-47" value="" style="rounded=0;whiteSpace=wrap;html=1;fillColor=#b0e3e6;strokeColor=#0e8088;" vertex="1" parent="1">
          <mxGeometry x="730" y="280" width="90" height="110" as="geometry" />
        </mxCell>
        <mxCell id="innrkbjN795lYIx9L5WS-48" value="API" style="text;html=1;strokeColor=none;fillColor=none;align=center;verticalAlign=middle;whiteSpace=wrap;rounded=0;" vertex="1" parent="1">
          <mxGeometry x="755" y="250" width="40" height="20" as="geometry" />
        </mxCell>
        <mxCell id="innrkbjN795lYIx9L5WS-49" value="Service" style="rounded=0;whiteSpace=wrap;html=1;fillColor=#fff2cc;strokeColor=#d6b656;" vertex="1" parent="1">
          <mxGeometry x="745" y="300" width="60" height="30" as="geometry" />
        </mxCell>
        <mxCell id="innrkbjN795lYIx9L5WS-50" value="Entity" style="rounded=0;whiteSpace=wrap;html=1;fillColor=#dae8fc;strokeColor=#6c8ebf;" vertex="1" parent="1">
          <mxGeometry x="745" y="340" width="60" height="30" as="geometry" />
        </mxCell>
      </root>
    </mxGraphModel>
  </diagram>
</mxfile>
